<svg width="32" height="32" viewBox="0 0 32 32" fill="none" xmlns="http://www.w3.org/2000/svg">
<path d="M19.3849 10.455L21.5445 12.6135M20.7737 8.55336L14.9342 14.3928C14.6325 14.6941 14.4267 15.078 14.3429 15.496L13.8035 18.196L16.5035 17.6556C16.9215 17.572 17.3049 17.3671 17.6067 17.0652L23.4461 11.2258C23.6216 11.0503 23.7608 10.842 23.8558 10.6127C23.9507 10.3835 23.9996 10.1377 23.9996 9.88959C23.9996 9.64143 23.9507 9.3957 23.8558 9.16643C23.7608 8.93716 23.6216 8.72884 23.4461 8.55336C23.2707 8.37789 23.0623 8.23869 22.8331 8.14372C22.6038 8.04876 22.3581 7.99988 22.1099 7.99988C21.8617 7.99988 21.616 8.04876 21.3867 8.14372C21.1575 8.23869 20.9491 8.37789 20.7737 8.55336Z" stroke="#696969" stroke-linecap="round" stroke-linejoin="round"/>
<path d="M21.961 20.2353V23.2942C21.961 23.835 21.7461 24.3537 21.3637 24.7361C20.9813 25.1186 20.4626 25.3334 19.9217 25.3334H8.70577C8.16492 25.3334 7.64623 25.1186 7.26379 24.7361C6.88135 24.3537 6.6665 23.835 6.6665 23.2942V12.0782C6.6665 11.5374 6.88135 11.0187 7.26379 10.6362C7.64623 10.2538 8.16492 10.0389 8.70577 10.0389H11.7647" stroke="#696969" stroke-linecap="round" stroke-linejoin="round"/>
</svg>
