<svg width="24" height="24" viewBox="0 0 24 24" fill="none" xmlns="http://www.w3.org/2000/svg">
<path d="M9.21563 12.2306C9.11283 12.188 8.99971 12.1769 8.89057 12.1985C8.78144 12.2202 8.68118 12.2738 8.6025 12.3525L6.51656 14.4375H4.5C4.35082 14.4375 4.20774 14.4968 4.10225 14.6023C3.99676 14.7077 3.9375 14.8508 3.9375 15V18.75C3.9375 18.8992 3.99676 19.0423 4.10225 19.1477C4.20774 19.2532 4.35082 19.3125 4.5 19.3125H6.51656L8.6025 21.3975C8.68117 21.4761 8.78135 21.5296 8.8904 21.5512C8.99945 21.5729 9.11247 21.5617 9.21519 21.5192C9.31791 21.4767 9.40573 21.4047 9.46754 21.3122C9.52936 21.2198 9.5624 21.1112 9.5625 21V12.75C9.56247 12.6388 9.52951 12.5302 9.46777 12.4377C9.40603 12.3453 9.31829 12.2732 9.21563 12.2306ZM8.4375 19.6369L7.1475 18.3525C7.04211 18.247 6.89913 18.1876 6.75 18.1875H5.0625V15.5625H6.75C6.89913 15.5624 7.04211 15.503 7.1475 15.3975L8.4375 14.1084V19.6369ZM14.0625 16.875C14.062 17.5037 13.8973 18.1213 13.5849 18.6668C13.2725 19.2124 12.8232 19.667 12.2812 19.9856C12.1533 20.0485 12.0063 20.0604 11.8699 20.019C11.7335 19.9776 11.6179 19.886 11.5465 19.7627C11.475 19.6393 11.4531 19.4935 11.4851 19.3546C11.517 19.2156 11.6006 19.0941 11.7188 19.0144C12.0908 18.7947 12.3991 18.4819 12.6133 18.1067C12.8275 17.7316 12.9401 17.307 12.9401 16.875C12.9401 16.443 12.8275 16.0184 12.6133 15.6433C12.3991 15.2681 12.0908 14.9553 11.7188 14.7356C11.6006 14.6559 11.517 14.5344 11.4851 14.3954C11.4531 14.2565 11.475 14.1107 11.5465 13.9873C11.6179 13.864 11.7335 13.7724 11.8699 13.731C12.0063 13.6896 12.1533 13.7015 12.2812 13.7644C12.8232 14.083 13.2725 14.5376 13.5849 15.0832C13.8973 15.6287 14.062 16.2463 14.0625 16.875ZM19.8975 7.8525L14.6475 2.6025C14.5421 2.49698 14.3991 2.43763 14.25 2.4375H5.25C4.9019 2.4375 4.56806 2.57578 4.32192 2.82192C4.07578 3.06806 3.9375 3.4019 3.9375 3.75V11.25C3.9375 11.3992 3.99676 11.5423 4.10225 11.6477C4.20774 11.7532 4.35082 11.8125 4.5 11.8125C4.64918 11.8125 4.79226 11.7532 4.89775 11.6477C5.00324 11.5423 5.0625 11.3992 5.0625 11.25V3.75C5.0625 3.70027 5.08225 3.65258 5.11742 3.61742C5.15258 3.58225 5.20027 3.5625 5.25 3.5625H13.6875V8.25C13.6875 8.39918 13.7468 8.54226 13.8523 8.64775C13.9577 8.75324 14.1008 8.8125 14.25 8.8125H18.9375V20.25C18.9375 20.2997 18.9177 20.3474 18.8826 20.3826C18.8474 20.4177 18.7997 20.4375 18.75 20.4375H15.75C15.6008 20.4375 15.4577 20.4968 15.3523 20.6023C15.2468 20.7077 15.1875 20.8508 15.1875 21C15.1875 21.1492 15.2468 21.2923 15.3523 21.3977C15.4577 21.5032 15.6008 21.5625 15.75 21.5625H18.75C19.0981 21.5625 19.4319 21.4242 19.6781 21.1781C19.9242 20.9319 20.0625 20.5981 20.0625 20.25V8.25C20.0624 8.10087 20.003 7.95789 19.8975 7.8525ZM14.8125 4.3575L18.1425 7.6875H14.8125V4.3575Z" fill="#696969"/>
</svg>
