<svg width="24" height="24" viewBox="0 0 24 24" fill="none" xmlns="http://www.w3.org/2000/svg">
<path d="M17.82 7.69286L13.62 3.19286C13.5 3.06429 13.38 3 13.2 3H7.2C6.54 3 6 3.57857 6 4.28571V19.7143C6 20.4214 6.54 21 7.2 21H16.8C17.46 21 18 20.4214 18 19.7143V8.14286C18 7.95 17.94 7.82143 17.82 7.69286ZM13.2 4.54286L16.56 8.14286H13.2V4.54286ZM16.8 19.7143H7.2V4.28571H12V8.14286C12 8.85 12.54 9.42857 13.2 9.42857H16.8V19.7143Z" fill="#1890FF"/>
<path d="M8.4 15.8571H15.6V17.1429H8.4V15.8571ZM8.4 12H15.6V13.2857H8.4V12Z" fill="#1890FF"/>
</svg>
