<svg width="32" height="32" viewBox="0 0 32 32" fill="none" xmlns="http://www.w3.org/2000/svg">
<path d="M21.8444 6.66663H7.48838C6.16643 6.66663 5.06461 7.77764 5.39121 9.08399C5.7389 10.4684 6.37939 11.7582 7.26768 12.863C8.15598 13.9678 9.27053 14.8607 10.5331 15.479C11.5176 15.9601 12.2737 16.905 12.2737 18.0185V25.4464C12.2738 25.6544 12.326 25.859 12.4253 26.0406C12.5247 26.2223 12.6678 26.375 12.8413 26.4844C13.0147 26.5937 13.2126 26.656 13.4162 26.6654C13.6199 26.6747 13.8225 26.6309 14.0048 26.5379L16.3975 25.317C16.5962 25.2156 16.7633 25.0599 16.8801 24.8671C16.997 24.6743 17.0589 24.4522 17.0591 24.2255V18.0185C17.0591 16.905 17.8151 15.9601 18.7985 15.479C20.0615 14.8611 21.1766 13.9683 22.0653 12.8635C22.9541 11.7587 23.5949 10.4686 23.9428 9.08399C24.267 7.77764 23.164 6.66663 21.8444 6.66663Z" stroke="#696969"/>
<path fill-rule="evenodd" clip-rule="evenodd" d="M24 26.6666C26.2091 26.6666 28 24.8758 28 22.6666C28 20.4575 26.2091 18.6666 24 18.6666C21.7909 18.6666 20 20.4575 20 22.6666C20 24.8758 21.7909 26.6666 24 26.6666ZM25.7682 21.6059C25.9635 21.4107 25.9635 21.0941 25.7682 20.8988C25.573 20.7036 25.2564 20.7036 25.0611 20.8988L24.0004 21.9595L22.9398 20.8988C22.7445 20.7036 22.4279 20.7036 22.2327 20.8988C22.0374 21.0941 22.0374 21.4107 22.2327 21.6059L23.2933 22.6666L22.2327 23.7272C22.0374 23.9225 22.0374 24.2391 22.2327 24.4344C22.4279 24.6296 22.7445 24.6296 22.9398 24.4344L24.0004 23.3737L25.0611 24.4344C25.2564 24.6296 25.573 24.6296 25.7682 24.4344C25.9635 24.2391 25.9635 23.9225 25.7682 23.7272L24.7076 22.6666L25.7682 21.6059Z" fill="#696969"/>
</svg>
