<svg width="32" height="32" viewBox="0 0 32 32" fill="none" xmlns="http://www.w3.org/2000/svg">
<path d="M5.33325 8.99996C5.33325 8.38112 5.58299 7.78763 6.02752 7.35004C6.47205 6.91246 7.07496 6.66663 7.70362 6.66663H12.3614C12.7515 6.66657 13.1357 6.76131 13.4797 6.94244C13.8237 7.12357 14.117 7.38549 14.3335 7.70496L15.2959 9.12829C15.5124 9.44776 15.8057 9.70968 16.1498 9.89081C16.4938 10.0719 16.8779 10.1667 17.2681 10.1666H24.2962C24.9249 10.1666 25.5278 10.4125 25.9723 10.85C26.4168 11.2876 26.6666 11.8811 26.6666 12.5V23C26.6666 23.6188 26.4168 24.2123 25.9723 24.6499C25.5278 25.0875 24.9249 25.3333 24.2962 25.3333H7.70362C7.07496 25.3333 6.47205 25.0875 6.02752 24.6499C5.58299 24.2123 5.33325 23.6188 5.33325 23V8.99996Z" stroke="#696969" stroke-linecap="round" stroke-linejoin="round"/>
</svg>
