<svg width="32" height="32" viewBox="0 0 32 32" fill="none" xmlns="http://www.w3.org/2000/svg">
<path d="M21.9258 26.6667H10.074M21.9258 26.6667H22.8775C24.2026 26.6667 24.8651 26.6667 25.3712 26.4083C25.818 26.1808 26.1807 25.8181 26.4082 25.3725C26.6666 24.8664 26.6666 24.2027 26.6666 22.8777V12.7052C26.6666 12.1719 26.6666 11.9052 26.6097 11.6516C26.5593 11.4253 26.4758 11.2077 26.362 11.0057C26.2364 10.7805 26.0586 10.5849 25.7101 10.1974L22.445 6.56834C22.0408 6.12034 21.8358 5.89278 21.5904 5.72923C21.3692 5.5824 21.1248 5.47383 20.8675 5.40804C20.5783 5.33337 20.2666 5.33337 19.6444 5.33337H9.12584C7.79844 5.33337 7.13473 5.33337 6.62747 5.59174C6.18143 5.81893 5.81881 6.18155 5.59162 6.6276C5.33325 7.13486 5.33325 7.79856 5.33325 9.12597V22.8741C5.33325 24.2015 5.33325 24.8652 5.59162 25.3713C5.81918 25.8181 6.18066 26.1808 6.62747 26.4083C7.13355 26.6667 7.79725 26.6667 9.12229 26.6667H10.074M21.9258 26.6667V22.1594C21.9258 20.8344 21.9258 20.1707 21.6675 19.6646C21.4398 19.2185 21.0768 18.8559 20.6304 18.6288C20.1244 18.3704 19.4607 18.3704 18.1333 18.3704H13.8666C12.5392 18.3704 11.8755 18.3704 11.3682 18.6288C10.9222 18.856 10.5595 19.2186 10.3324 19.6646C10.074 20.1719 10.074 20.8356 10.074 22.163V26.6667M19.5555 10.0741H12.4444" stroke="#696969" stroke-linecap="round" stroke-linejoin="round"/>
</svg>
